<?xml version="1.0" encoding="utf-8"?>
<!-- Generator: Adobe Illustrator 27.5.0, SVG Export Plug-In . SVG Version: 6.00 Build 0)  -->
<svg version="1.1" id="Laag_3" xmlns="http://www.w3.org/2000/svg" xmlns:xlink="http://www.w3.org/1999/xlink" x="0px" y="0px"
	 viewBox="0 0 595.28 841.89" style="enable-background:new 0 0 595.28 841.89;" xml:space="preserve">
<style type="text/css">
	.st0{fill:none;}
	.st1{fill:none;stroke:#000000;stroke-width:2;stroke-linecap:round;stroke-linejoin:round;stroke-miterlimit:10;}
	.st2{fill:none;stroke:#B9970A;stroke-width:2;stroke-linecap:round;stroke-linejoin:round;stroke-miterlimit:10;}
	.st3{fill:none;stroke:#020304;stroke-width:2;stroke-linecap:round;stroke-linejoin:round;stroke-miterlimit:10;}
	.st4{fill:none;stroke:#000000;stroke-width:4;stroke-linecap:round;stroke-linejoin:round;stroke-miterlimit:10;}
	.st5{fill:none;stroke:#B9970A;stroke-width:4;stroke-linecap:round;stroke-linejoin:round;stroke-miterlimit:10;}
	.st6{fill:url(#SVGID_1_);stroke:#000000;stroke-width:4;stroke-linecap:round;stroke-linejoin:round;stroke-miterlimit:10;}
	.st7{fill:none;stroke:#000000;stroke-width:4;stroke-miterlimit:10;}
</style>
<pattern  width="104.82" height="187.39" patternUnits="userSpaceOnUse" id="Unnamed_Pattern" viewBox="4.88 -187.39 104.82 187.39" style="overflow:visible;">
	<g>
		<rect x="4.88" y="-187.39" class="st0" width="104.82" height="187.39"/>
		<path class="st1" d="M99.48-92.54"/>
		<g>
			<path class="st2" d="M46.51-148c0,0-30.1,4.28-38.65,42.39c-0.35,1.58-0.61,3.17-0.97,4.75C6-96.9,4.66-85.43,18.47-84.1
				c16.74,1.61,13.99-16.51,13.99-16.51"/>
			<line class="st2" x1="20.53" y1="-99.47" x2="43.46" y2="-101.53"/>
			<circle class="st2" cx="60.53" cy="-133.29" r="16.17"/>
			<path class="st2" d="M81.15-146.48l-6.04,44.95c0,0,13.25-8.76,25.08,3.41"/>
			<path class="st2" d="M5.88-82c0,0-0.26,22.47,6.39,41.57c0,0,22.25-9.34,19.72-26.3C29.48-83.71,5.88-82,5.88-82z"/>
			<path class="st2" d="M54.05-92.13l-17.23,3.9c0,0,10.32,8.94,11.92,33.94l11.8-4.59"/>
			<line class="st2" x1="44.49" y1="-75.42" x2="58.14" y2="-78.83"/>
			<path class="st2" d="M69.6-59.8c0,0,0.74-26.08-3.43-34.25c0,0,22.08,13.15,25.51,28.52c0,0-3.83-11.41,8.51-28.52"/>
			<path class="st2" d="M54.05-1c-28.4-5.18-39.6-35.91-39.6-35.91l15.49-6.61"/>
			<line class="st2" x1="21.34" y1="-24.03" x2="36.81" y2="-36.87"/>
			<path class="st2" d="M51.31-49.02l-14.5,3.9c0,0,9.86,5.73,13.3,24.31l9.4-6.19"/>
			<line class="st2" x1="44.49" y1="-36.51" x2="56.75" y2="-41.46"/>
			<path class="st2" d="M91.45-16.7C83.25-5.47,67.4-1.78,67.4-1.78L59.51-48.1l11.01-2.06"/>
			<line class="st2" x1="62.21" y1="-32.24" x2="75.48" y2="-34.92"/>
			<path class="st2" d="M90.47-49.02c0,0,9.63,10.78,4.13,29.35"/>
			<line class="st2" x1="93.38" y1="-57.28" x2="84.05" y2="-30.45"/>
		</g>
		<path class="st3" d="M91.39-140.16c0,0,27.06,9.86,13.53,36.69"/>
		<path class="st3" d="M80.53-177.65c0,0-16.27,13.2-1.37,25.02"/>
		<path class="st3" d="M61.34-176.3c0,0-16.27,12.49-1.37,23.67"/>
		<path class="st3" d="M38.9-170.68c0,0-16.27,11.04-1.37,20.92"/>
		<path class="st3" d="M16.27-158.11c0,0-16.27,10.1-1.37,19.14"/>
		<path class="st3" d="M103.3-186.39c0,0-16.27,19.34-1.37,36.65"/>
	</g>
</pattern>
<g>
	<path class="st4" d="M450.36,411.84"/>
	<path class="st5" d="M225.2,175.77c0,0-131.71,18.73-169.11,185.47c-1.55,6.89-2.69,13.88-4.23,20.77
		c-3.9,17.38-9.77,67.55,50.65,73.35c73.24,7.02,61.2-72.24,61.2-72.24"/>
	<line class="st5" x1="111.55" y1="388.14" x2="211.88" y2="379.11"/>
	<circle class="st5" cx="254.29" cy="273.16" r="70.73"/>
	<path class="st5" d="M367.05,222.22L340.6,372.23c0,0,57.99-29.25,109.76,11.39"/>
	<path class="st5" d="M47.44,464.55c0,0-1.14,98.32,27.97,181.88c0,0,97.34-40.85,86.3-115.1
		C150.67,457.09,47.44,464.55,47.44,464.55z"/>
	<path class="st5" d="M258.18,420.25l-75.4,17.06c0,0,45.15,39.13,52.17,148.49l51.61-20.07"/>
	<line class="st5" x1="216.35" y1="493.34" x2="276.09" y2="478.44"/>
	<path class="st5" d="M258.18,818.99C133.92,796.34,84.9,661.85,84.9,661.85l67.79-28.9"/>
	<line class="st5" x1="115.08" y1="718.21" x2="182.78" y2="662.04"/>
	<path class="st5" d="M246.22,608.87l-63.44,17.06c0,0,43.14,25.08,58.19,106.35l41.14-27.09"/>
	<line class="st5" x1="216.35" y1="663.6" x2="270.02" y2="641.98"/>
	<path class="st5" d="M421.82,750.29c-35.86,49.12-105.22,65.28-105.22,65.28l-34.49-202.69l48.16-9.03"/>
	<line class="st5" x1="293.92" y1="682.32" x2="351.96" y2="670.57"/>
	<path class="st5" d="M417.55,608.87c0,0,42.14,47.15,18.06,128.42"/>
	<line class="st5" x1="430.3" y1="572.75" x2="389.46" y2="690.12"/>
	<g>
		<path class="st5" d="M326.23,561.71c0,0,3.22-114.13-15.03-149.87c0,0,96.61,57.54,111.64,124.79c0,0-16.74-49.92,37.25-124.79"/>
		<path class="st5" d="M348.26,175.8c43.75-11.58,223.22,90.88,111.83,236.05"/>
	</g>
	<pattern  id="SVGID_1_" xlink:href="#Unnamed_Pattern" patternTransform="matrix(2.0478 0 0 2.0478 8009.7427 7229.0103)">
	</pattern>
	<path class="st6" d="M511.53,428.01"/>
	<circle class="st7" cx="115.08" cy="150.43" r="43.04"/>
	<circle class="st7" cx="225.2" cy="103.5" r="46.93"/>
	<circle class="st7" cx="361.01" cy="99.94" r="51.42"/>
	<circle class="st7" cx="511.53" cy="139.09" r="70.57"/>
	<circle class="st7" cx="47.43" cy="237.43" r="34.05"/>
	<path class="st5" d="M46.48,215.53c0,0,24.08-1.21,24.2,21.91s-21.07,23.12-21.07,23.12"/>
	<path class="st5" d="M115.08,124.06c0,0,27.47-4.01,28.47,24.75s-25.08,26.97-25.08,26.97"/>
	<path class="st5" d="M225.2,73.9c0,0,27.71,1.92,29.05,26.04s-27.42,26.13-27.42,26.13"/>
	<path class="st5" d="M361.01,63.86c0,0,35.79,1.11,36.7,36.12c0.92,35.01-36.7,32.77-36.7,32.77"/>
	<path class="st5" d="M511.53,88.95c0,0,44.71,2.01,47.72,52.51c3.01,50.5-47.72,40.98-47.72,40.98"/>
</g>
</svg>
